<svg width="26" height="27" viewBox="0 0 26 27" fill="none"
  xmlns="http://www.w3.org/2000/svg">
  <path d="M17.9837 9.8347L24.6642 11.7596C26.3805 12.2541 26.3805 14.686 24.6642 15.1806L17.9837 17.1054C17.3954 17.2749 16.9355 17.7348 16.766 18.3231L14.8412 25.0035C14.3467 26.7198 11.9147 26.7198 11.4202 25.0035L9.49538 18.3231C9.32588 17.7348 8.866 17.2749 8.27774 17.1054L1.5972 15.1806C-0.119096 14.686 -0.119103 12.2541 1.59719 11.7596L8.27775 9.8347C8.866 9.6652 9.32588 9.20532 9.49538 8.61706L11.4202 1.93653C11.9147 0.22023 14.3467 0.220225 14.8412 1.93653L16.766 8.61706C16.9355 9.20531 17.3954 9.6652 17.9837 9.8347Z" fill="#D4FFB9"/>
</svg>
